<?xml version="1.0" encoding="utf-8"?>
<!-- Generator: Adobe Illustrator 27.2.0, SVG Export Plug-In . SVG Version: 6.00 Build 0)  -->
<svg version="1.1" id="Ebene_1" xmlns="http://www.w3.org/2000/svg" xmlns:xlink="http://www.w3.org/1999/xlink" x="0px" y="0px"
	 viewBox="0 0 569 581.4" style="enable-background:new 0 0 569 581.4;" xml:space="preserve">
<style type="text/css">
	.st0{fill:#BE0000;}
	.st1{fill:#D61341;}
	.st2{fill:url(#SVGID_1_);}
	.st3{fill:url(#SVGID_00000158008356785518168210000002459864276481662856_);}
	.st4{fill:url(#SVGID_00000069399273762833078090000004041230123308162720_);}
	.st5{fill:url(#SVGID_00000093871886793017735910000000150329466885263008_);}
	.st6{fill:#FFFFFF;}
	.st7{fill:url(#SVGID_00000071551336660216843170000006588409102931318925_);}
</style>
<g>
	<rect y="0" class="st0" width="569" height="581.4"/>
	<polygon class="st1" points="569,346.6 569,0 0,0 335.6,346.6 401.7,346.6 401.7,236.2 	"/>
	<linearGradient id="SVGID_1_" gradientUnits="userSpaceOnUse" x1="0" y1="126.0871" x2="175.1612" y2="126.0871">
		<stop  offset="2.083124e-04" style="stop-color:#7C0614"/>
		<stop  offset="1" style="stop-color:#CE0F2F"/>
	</linearGradient>
	<polygon class="st2" points="175.2,0 0,0 0,252.2 	"/>
	
		<linearGradient id="SVGID_00000072977779211885188650000013213158664184466564_" gradientUnits="userSpaceOnUse" x1="0" y1="290.6799" x2="127.107" y2="290.6799">
		<stop  offset="0" style="stop-color:#7C0614"/>
		<stop  offset="1" style="stop-color:#CE0F2F"/>
	</linearGradient>
	<polygon style="fill:url(#SVGID_00000072977779211885188650000013213158664184466564_);" points="0,0 0,581.4 127.1,581.4 	"/>
	
		<linearGradient id="SVGID_00000179603663359084385010000017062948221924445341_" gradientUnits="userSpaceOnUse" x1="314.2513" y1="347.3475" x2="302.4467" y2="9.3083">
		<stop  offset="1.102971e-04" style="stop-color:#CE0F2F"/>
		<stop  offset="0.2116" style="stop-color:#CA0F2E"/>
		<stop  offset="0.4379" style="stop-color:#BD0D29"/>
		<stop  offset="0.6712" style="stop-color:#A70B22"/>
		<stop  offset="0.9079" style="stop-color:#8A0819"/>
		<stop  offset="1" style="stop-color:#7C0614"/>
	</linearGradient>
	<polygon style="fill:url(#SVGID_00000179603663359084385010000017062948221924445341_);" points="41.9,191.8 335.6,346.6 
		384.8,173.3 462.7,157.9 569,0 	"/>
	
		<linearGradient id="SVGID_00000108303153211990919600000008246061301681350564_" gradientUnits="userSpaceOnUse" x1="288.9586" y1="517.6246" x2="283.1171" y2="601.1622">
		<stop  offset="0" style="stop-color:#CE0F2F"/>
		<stop  offset="0.2115" style="stop-color:#CA0F2E"/>
		<stop  offset="0.4379" style="stop-color:#BD0D29"/>
		<stop  offset="0.6712" style="stop-color:#A70B22"/>
		<stop  offset="0.9079" style="stop-color:#8A0819"/>
		<stop  offset="1" style="stop-color:#7C0614"/>
	</linearGradient>
	<polygon style="fill:url(#SVGID_00000108303153211990919600000008246061301681350564_);" points="110.4,505.1 0,581.4 569,581.4 	
		"/>
	<g>
		<path class="st6" d="M59.3,394.2H41.2v17.3h-5.5v-39.3h5.5v16.8h18.1v-16.8h5.6v39.3h-5.6V394.2z"/>
		<path class="st6" d="M76.1,392c0-13,3.5-20.5,15.6-20.5c12.1,0,15.7,7.4,15.7,20.5c0,13.4-3.5,20.1-15.7,20.1
			C79.6,412.1,76.1,405.2,76.1,392z M101.7,392c0-9.7-1.9-15.2-10-15.2c-8.1,0-10,5.4-10,15.2c0,9.9,1.8,14.7,10,14.7
			C100,406.7,101.7,402.1,101.7,392z"/>
		<path class="st6" d="M142.1,410.7c0,0-6.5,1.4-10.9,1.4c-11.8,0-14.5-7-14.5-20.2c0-13.8,3.1-20.3,14.5-20.3
			c5,0,10.9,1.4,10.9,1.4l-0.2,4.9c0,0-6.4-1-10.1-1c-7.8,0-9.5,4.3-9.5,15c0,10.4,1.4,14.8,9.6,14.8c3.3,0,10-1,10-1L142.1,410.7z"
			/>
		<path class="st6" d="M176.4,394.2h-18.1v17.3h-5.5v-39.3h5.5v16.8h18.1v-16.8h5.6v39.3h-5.6V394.2z"/>
		<path class="st6" d="M217.2,377.7c0,0-7.9-1-11.2-1c-5.1,0-7.7,1.7-7.7,5.5c0,4.2,2.3,5.1,9,6.7c8,2.1,11.2,4.2,11.2,11.1
			c0,8.3-5.1,11.9-13,11.9c-4.2,0-12-1.3-12-1.3l0.6-5c0,0,7.3,1,11.3,1c5.1,0,7.6-1.8,7.6-6.4c0-3.7-2-4.9-8.1-6.3
			c-8.3-1.9-12.1-4.2-12.1-11.6c0-7.4,5.1-10.9,13.3-10.9c4.4,0,11.7,1.3,11.7,1.3L217.2,377.7z"/>
		<path class="st6" d="M252.6,410.7c0,0-6.5,1.4-10.9,1.4c-11.8,0-14.5-7-14.5-20.2c0-13.8,3.1-20.3,14.5-20.3
			c5,0,10.9,1.4,10.9,1.4l-0.2,4.9c0,0-6.4-1-10.1-1c-7.8,0-9.5,4.3-9.5,15c0,10.4,1.4,14.8,9.6,14.8c3.3,0,10-1,10-1L252.6,410.7z"
			/>
		<path class="st6" d="M287,394.2h-18.1v17.3h-5.5v-39.3h5.5v16.8H287v-16.8h5.6v39.3H287V394.2z"/>
		<path class="st6" d="M319.1,406.6c5.3,0,8.6-1.8,8.6-7.4v-27.1h5.6v27.1c0,9.2-5,12.7-14.2,12.7c-8.9,0-13.9-3.6-13.9-12.7v-27.1
			h5.5v27.1C310.6,404.8,314,406.6,319.1,406.6z"/>
		<path class="st6" d="M345.9,411.4v-39.3h5.5v34h16.2v5.3H345.9z"/>
		<path class="st6" d="M378.3,372.1h24.2v5.3h-18.8v11.8h15.4v5.2h-15.4v11.8h18.8v5.3h-24.2V372.1z"/>
		<path class="st6" d="M35.6,474.4v-49.2h9.8v39.7h17.8v9.5H35.6z"/>
		<path class="st6" d="M82.7,425.2h18.7l10.7,49.2h-9.8l-2.2-8.3H83.5l-1.9,8.3h-9.8L82.7,425.2z M85.6,456.6h12.6l-4.6-22.4h-3.2
			L85.6,456.6z"/>
		<path class="st6" d="M123.5,425.2H139l13.6,36.8h1.1v-36.8h9.8v49.2h-15l-14.1-36.8h-1.1v36.8h-9.8V425.2z"/>
		<path class="st6" d="M178.5,474.4v-49.2h16.2c16.9,0,20.6,7.4,20.6,23.7c0,16.7-3.2,25.5-20.6,25.5H178.5z M194.7,434.5h-6.5V465
			h6.5c9.6,0,10.5-6.1,10.5-16.2C205.2,438.9,204.3,434.5,194.7,434.5z"/>
		<path class="st6" d="M257.1,435c0,0-10.1-1.1-14.2-1.1c-5.3,0-7.8,1.6-7.8,4.8c0,3.1,1.9,4.2,10.1,6.8
			c10.5,3.4,13.7,6.3,13.7,14.8c0,10.1-7.2,15-17.3,15c-5.4,0-15-2-15-2l1-8.8c0,0,8.8,1.2,13.9,1.2c5.3,0,7.6-1.4,7.6-5.2
			c0-3-1.7-4.4-8.7-6.4c-10.9-3.1-15.1-6.8-15.1-15.3c0-9.4,6.7-14.5,17.6-14.5c5.5,0,15,1.9,15,1.9L257.1,435z"/>
		<path class="st6" d="M298.9,454.1h-18v20.3H271v-49.2h9.8v19.4h18v-19.4h9.8v49.2h-9.8V454.1z"/>
		<path class="st6" d="M341.5,465.4c5.1,0,8.6-1.7,8.6-7.4v-32.8h9.8V458c0,12.1-6.4,17.1-18.5,17.1c-12.1,0-18.5-4.9-18.5-17.1
			v-32.8h9.8V458C332.9,463.8,336.4,465.4,341.5,465.4z"/>
		<path class="st6" d="M368.5,425.2h35.7v9.5h-12.8v39.7h-9.8v-39.7h-13V425.2z"/>
	</g>
	
		<linearGradient id="SVGID_00000152243053577019419430000000429390111003654825_" gradientUnits="userSpaceOnUse" x1="401.7051" y1="460.2861" x2="569.003" y2="460.2861">
		<stop  offset="0" style="stop-color:#CE0F2F"/>
		<stop  offset="0.2115" style="stop-color:#CA0F2E"/>
		<stop  offset="0.4378" style="stop-color:#BD0D29"/>
		<stop  offset="0.6711" style="stop-color:#A70B22"/>
		<stop  offset="0.9078" style="stop-color:#8A0819"/>
		<stop  offset="0.9999" style="stop-color:#7C0614"/>
	</linearGradient>
	<polygon style="fill:url(#SVGID_00000152243053577019419430000000429390111003654825_);" points="401.7,346.6 462.9,563.7 
		524.5,574 569,513.7 512.4,474.7 	"/>
	<path class="st6" d="M569,469.7c-10.6,1.5-23.4,3.2-25.6,3.5c-3.8,0.6-7.2,0.8-10.2,0.8c-6.4,0-10.8-1.3-13.2-4
		c-2.4-2.6-3.5-7.3-3.5-14l0.3-249.6c0-22.3-4.6-40-13.8-53.1c-9.2-13.1-24.7-19.7-46.4-19.7c-10.3,0-20.2,1.5-29.7,4.6
		c-9.5,3.1-17.8,7.8-25.1,14.2V0h-66.1v346.6h66.1V236.2c0-8.1,1-15.4,2.9-22c2-6.5,4.5-12.1,7.5-16.7c3.1-4.6,6.5-8.1,10.3-10.4
		c3.8-2.4,7.5-3.6,11.1-3.6c6.4,0,10.8,3,13.2,9c2.3,6,3.5,13.9,3.5,23.6l0.1,254.2c0,7.5,1.1,14.5,3.1,20.9
		c2.1,6.4,5.4,12.1,10,16.9c4.6,4.9,10.3,8.7,17.1,11.5c6.8,2.8,15.1,3.9,24.9,4.2c16.7,0.5,44.2-5.4,63.5-10.2V469.7z"/>
</g>
</svg>
